<svg width="1918" height="1024" viewBox="0 0 1918 1024" fill="none" xmlns="http://www.w3.org/2000/svg">
<path d="M834.594 559C164.773 698.2 -0.222677 938.333 1.0068 1041H1919V-65C1836.62 85 1504.41 419.8 834.594 559Z" fill="#9B51E0" stroke="#EB5757"/>
<path d="M951.376 559C353.69 698.2 206.462 938.333 207.559 1041H1919V-65C1845.49 85 1549.06 419.8 951.376 559Z" fill="#F2C94C" stroke="#EB5757"/>
<g filter="url(#filter0_d)">
<path d="M1164.63 559C698.668 698.2 583.887 938.333 584.743 1041H1919V-65C1861.7 85 1630.6 419.8 1164.63 559Z" fill="#EB5757"/>
<path d="M1164.63 559C698.668 698.2 583.887 938.333 584.743 1041H1919V-65C1861.7 85 1630.6 419.8 1164.63 559Z" stroke="#EB5757"/>
</g>
<defs>
<filter id="filter0_d" x="534.238" y="-112.178" width="1435.26" height="1206.68" filterUnits="userSpaceOnUse" color-interpolation-filters="sRGB">
<feFlood flood-opacity="0" result="BackgroundImageFix"/>
<feColorMatrix in="SourceAlpha" type="matrix" values="0 0 0 0 0 0 0 0 0 0 0 0 0 0 0 0 0 0 127 0"/>
<feOffset dy="3"/>
<feGaussianBlur stdDeviation="25"/>
<feColorMatrix type="matrix" values="0 0 0 0 0 0 0 0 0 0 0 0 0 0 0 0 0 0 0.25 0"/>
<feBlend mode="normal" in2="BackgroundImageFix" result="effect1_dropShadow"/>
<feBlend mode="normal" in="SourceGraphic" in2="effect1_dropShadow" result="shape"/>
</filter>
</defs>
</svg>
