<svg xmlns="http://www.w3.org/2000/svg" width="1918" height="1024" fill="none" viewBox="0 0 1918 1024"><path fill="#9B51E0" stroke="#EB5757" d="M834.594 559C164.773 698.2 -0.222677 938.333 1.0068 1041H1919V-65C1836.62 85 1504.41 419.8 834.594 559Z"/><path fill="#F2C94C" stroke="#EB5757" d="M951.376 559C353.69 698.2 206.462 938.333 207.559 1041H1919V-65C1845.49 85 1549.06 419.8 951.376 559Z"/><g filter="url(#filter0_d)"><path fill="#EB5757" d="M1164.63 559C698.668 698.2 583.887 938.333 584.743 1041H1919V-65C1861.7 85 1630.6 419.8 1164.63 559Z"/><path stroke="#EB5757" d="M1164.63 559C698.668 698.2 583.887 938.333 584.743 1041H1919V-65C1861.7 85 1630.6 419.8 1164.63 559Z"/></g><defs><filter id="filter0_d" width="1435.26" height="1206.68" x="534.238" y="-112.178" color-interpolation-filters="sRGB" filterUnits="userSpaceOnUse"><feFlood flood-opacity="0" result="BackgroundImageFix"/><feColorMatrix in="SourceAlpha" type="matrix" values="0 0 0 0 0 0 0 0 0 0 0 0 0 0 0 0 0 0 127 0"/><feOffset dy="3"/><feGaussianBlur stdDeviation="25"/><feColorMatrix type="matrix" values="0 0 0 0 0 0 0 0 0 0 0 0 0 0 0 0 0 0 0.25 0"/><feBlend in2="BackgroundImageFix" mode="normal" result="effect1_dropShadow"/><feBlend in="SourceGraphic" in2="effect1_dropShadow" mode="normal" result="shape"/></filter></defs></svg>