<svg xmlns="http://www.w3.org/2000/svg" width="1440" height="406" fill="none" viewBox="0 0 1440 406"><g filter="url(#filter0_d)"><path fill="url(#paint0_linear)" fill-rule="evenodd" d="M0 334L48 310C96 286 192 238 288 250C384 262 480 334 576 328C672 322 768 238 864 232C960 226 1056 298 1152 280C1248 262 1344 154 1392 100L1440 46V406H1392C1344 406 1248 406 1152 406C1056 406 960 406 864 406C768 406 672 406 576 406C480 406 384 406 288 406C192 406 96 406 48 406H0V334Z" clip-rule="evenodd"/><path fill-rule="evenodd" stroke="#000" d="M0 334L48 310C96 286 192 238 288 250C384 262 480 334 576 328C672 322 768 238 864 232C960 226 1056 298 1152 280C1248 262 1344 154 1392 100L1440 46V406H1392C1344 406 1248 406 1152 406C1056 406 960 406 864 406C768 406 672 406 576 406C480 406 384 406 288 406C192 406 96 406 48 406H0V334Z" clip-rule="evenodd"/></g><defs><filter id="filter0_d" width="1540" height="460" x="-50" y="0" color-interpolation-filters="sRGB" filterUnits="userSpaceOnUse"><feFlood flood-opacity="0" result="BackgroundImageFix"/><feColorMatrix in="SourceAlpha" type="matrix" values="0 0 0 0 0 0 0 0 0 0 0 0 0 0 0 0 0 0 127 0"/><feOffset dy="4"/><feGaussianBlur stdDeviation="25"/><feColorMatrix type="matrix" values="0 0 0 0 0.0771527 0 0 0 0 0.841667 0 0 0 0 0.795796 0 0 0 0.78 0"/><feBlend in2="BackgroundImageFix" mode="normal" result="effect1_dropShadow"/><feBlend in="SourceGraphic" in2="effect1_dropShadow" mode="normal" result="shape"/></filter><linearGradient id="paint0_linear" x1="0" x2="1440" y1="226" y2="226" gradientUnits="userSpaceOnUse"><stop/><stop offset="1" stop-color="#292E49"/></linearGradient></defs></svg>